<svg width="177" height="24" viewBox="0 0 177 24" fill="none" xmlns="http://www.w3.org/2000/svg">
<path d="M12 2C6.5 2 2 6.5 2 12C2 17.5 6.5 22 12 22C17.5 22 22 17.5 22 12C22 6.5 17.5 2 12 2ZM12 4C16 4 19.4 7 19.9 11H12V4ZM16 18.9L12.6 13H20C19.6 15.5 18.2 17.7 16 18.9Z" fill="#FFBC57"/>
<path d="M45.666 18H42.93L38.674 12.661L37.572 13.953V18H35.349V5.327H37.572V11.369L42.531 5.327H45.286L40.137 11.312L45.666 18ZM45.5619 21.591L45.8659 19.805C46.0939 19.9063 46.3473 19.957 46.6259 19.957C47.2719 19.957 47.7089 19.691 47.9369 19.159L48.3929 18.114L44.6309 8.823H46.7589L49.4379 15.701L52.1169 8.823H54.2639L49.8369 19.653C49.2923 21.0083 48.2409 21.6987 46.6829 21.724C46.2649 21.724 45.8913 21.6797 45.5619 21.591ZM63.7246 18H61.7296V10.571H57.5116V18H55.5166V8.823H63.7246V18ZM68.2344 18H66.3154V8.823H68.3104V14.998L72.5284 8.823H74.5234V18H72.5284V11.654L68.2344 18ZM80.7813 18H78.7863V10.571H76.1643V8.823H83.4223V10.571H80.7813V18ZM86.9747 18H85.0557V8.823H87.0507V14.998L91.2687 8.823H93.2637V18H91.2687V11.654L86.9747 18ZM106.358 18H100.734V8.823H106.225C107.074 8.823 107.739 9.04467 108.22 9.488C108.702 9.93133 108.942 10.495 108.942 11.179C108.942 11.711 108.797 12.1607 108.505 12.528C108.214 12.8953 107.847 13.1423 107.403 13.269C107.897 13.383 108.309 13.6553 108.638 14.086C108.968 14.504 109.132 14.979 109.132 15.511C109.132 16.2457 108.885 16.8473 108.391 17.316C107.91 17.772 107.232 18 106.358 18ZM105.94 16.252C106.295 16.252 106.574 16.1633 106.776 15.986C106.979 15.796 107.08 15.5427 107.08 15.226C107.08 14.9347 106.979 14.6877 106.776 14.485C106.574 14.2823 106.295 14.181 105.94 14.181H102.729V16.252H105.94ZM105.883 12.433C106.2 12.433 106.447 12.3507 106.624 12.186C106.814 12.0087 106.909 11.787 106.909 11.521C106.909 11.2297 106.814 11.0017 106.624 10.837C106.447 10.6597 106.2 10.571 105.883 10.571H102.729V12.433H105.883ZM125.075 18H122.567L119.755 14.219L118.482 15.53V18H116.487V8.823H118.482V13.25L122.529 8.823H124.999L121.18 12.984L125.075 18ZM131.428 18.228C130.212 18.228 129.231 17.7277 128.483 16.727V21.496H126.488V8.823H128.483V10.077C129.218 9.089 130.2 8.595 131.428 8.595C132.632 8.595 133.607 9.02567 134.354 9.887C135.114 10.7483 135.494 11.92 135.494 13.402C135.494 14.884 135.114 16.062 134.354 16.936C133.607 17.7973 132.632 18.228 131.428 18.228ZM130.839 16.461C131.625 16.461 132.252 16.176 132.72 15.606C133.189 15.036 133.423 14.3013 133.423 13.402C133.423 12.5027 133.189 11.7743 132.72 11.217C132.252 10.647 131.625 10.362 130.839 10.362C130.383 10.362 129.934 10.4823 129.49 10.723C129.047 10.9637 128.711 11.255 128.483 11.597V15.226C128.711 15.568 129.047 15.8593 129.49 16.1C129.934 16.3407 130.383 16.461 130.839 16.461ZM141.71 18.228C140.316 18.228 139.164 17.7847 138.252 16.898C137.352 15.9987 136.903 14.8333 136.903 13.402C136.903 12.0593 137.34 10.9257 138.214 10.001C139.1 9.06367 140.215 8.595 141.558 8.595C142.913 8.595 144.002 9.06367 144.826 10.001C145.662 10.9383 146.08 12.1353 146.08 13.592V14.067H138.993C139.069 14.789 139.366 15.3907 139.886 15.872C140.405 16.3533 141.083 16.594 141.919 16.594C142.387 16.594 142.856 16.5053 143.325 16.328C143.806 16.1507 144.205 15.9037 144.522 15.587L145.434 16.898C144.509 17.7847 143.268 18.228 141.71 18.228ZM144.142 12.661C144.116 12.0277 143.882 11.464 143.439 10.97C143.008 10.476 142.381 10.229 141.558 10.229C140.772 10.229 140.158 10.476 139.715 10.97C139.271 11.4513 139.024 12.015 138.974 12.661H144.142ZM147.099 20.337V16.347C147.53 16.2457 147.853 15.9987 148.068 15.606C148.296 15.2007 148.48 14.428 148.619 13.288L149.17 8.823H156.257V16.252H157.264V20.337H155.269V18H149.094V20.337H147.099ZM150.937 10.571L150.614 13.516C150.487 14.732 150.082 15.644 149.398 16.252H154.262V10.571H150.937ZM160.822 18H158.903V8.823H160.898V14.998L165.116 8.823H167.111V18H165.116V11.654L160.822 18ZM173.369 18H171.374V10.571H168.752V8.823H176.01V10.571H173.369V18Z" fill="#535353"/>
</svg>
