<svg width="73" height="24" viewBox="0 0 73 24" fill="none" xmlns="http://www.w3.org/2000/svg">
<path d="M22 9.64095C22.1 9.14095 21.7 8.54095 21.2 8.54095L15.5 7.74095L12.9 2.54095C12.8 2.34095 12.7 2.24095 12.5 2.14095C12 1.84095 11.4 2.04095 11.1 2.54095L8.6 7.74095L2.9 8.54095C2.6 8.54095 2.4 8.64095 2.3 8.84095C1.9 9.24095 1.9 9.84095 2.3 10.241L6.4 14.241L5.4 19.941C5.4 20.141 5.4 20.341 5.5 20.541C5.8 21.041 6.4 21.241 6.9 20.941L12 18.241L17.1 20.941C17.2 21.041 17.4 21.041 17.6 21.041C17.7 21.041 17.7 21.041 17.8 21.041C18.3 20.941 18.7 20.441 18.6 19.841L17.6 14.141L21.7 10.141C21.9 10.041 22 9.84095 22 9.64095Z" fill="#FFBC57"/>
<path d="M41.749 18H39.222L38.291 15.568H32.477L31.546 18H29.019L33.997 5.327H36.771L41.749 18ZM37.664 13.611L35.384 7.569L33.104 13.611H37.664ZM51.6642 18H49.1562L46.3442 14.219L45.0712 15.53V18H43.0762V8.823H45.0712V13.25L49.1182 8.823H51.5882L47.7692 12.984L51.6642 18ZM60.2972 20.337V18H53.0772V8.823H55.0722V16.252H59.2902V8.823H61.2852V16.252H62.2922V20.337H60.2972ZM64.9196 7.702C64.5903 7.702 64.299 7.58167 64.0456 7.341C63.805 7.10033 63.6846 6.809 63.6846 6.467C63.6846 6.125 63.805 5.83367 64.0456 5.593C64.299 5.35233 64.5903 5.232 64.9196 5.232C65.2616 5.232 65.553 5.35233 65.7936 5.593C66.0343 5.83367 66.1546 6.125 66.1546 6.467C66.1546 6.809 66.0343 7.10033 65.7936 7.341C65.553 7.58167 65.2616 7.702 64.9196 7.702ZM65.9266 18H63.9316V8.823H65.9266V18ZM72.6187 6.448C72.6187 6.76467 72.5047 7.03067 72.2767 7.246C72.0613 7.46133 71.8017 7.569 71.4977 7.569C71.1937 7.569 70.9277 7.46133 70.6997 7.246C70.4843 7.03067 70.3767 6.76467 70.3767 6.448C70.3767 6.144 70.4843 5.88433 70.6997 5.669C70.9277 5.45367 71.1937 5.346 71.4977 5.346C71.8017 5.346 72.0613 5.45367 72.2767 5.669C72.5047 5.88433 72.6187 6.144 72.6187 6.448ZM68.6287 6.448C68.6287 6.76467 68.521 7.03067 68.3057 7.246C68.0903 7.46133 67.8307 7.569 67.5267 7.569C67.21 7.569 66.944 7.46133 66.7287 7.246C66.5133 7.03067 66.4057 6.76467 66.4057 6.448C66.4057 6.144 66.5133 5.88433 66.7287 5.669C66.944 5.45367 67.21 5.346 67.5267 5.346C67.8307 5.346 68.0903 5.45367 68.3057 5.669C68.521 5.88433 68.6287 6.144 68.6287 6.448ZM70.5097 18H68.5147V8.823H70.5097V18Z" fill="#535353"/>
</svg>
