<svg width="134" height="24" viewBox="0 0 134 24" fill="none" xmlns="http://www.w3.org/2000/svg">
<g clip-path="url(#clip0_46_233)">
<path d="M20.4893 3.51083C15.808 -1.16999 8.19196 -1.16999 3.51062 3.51083C-1.17021 8.19166 -1.17021 15.8079 3.51062 20.489C5.85127 22.8294 8.92565 23.9998 12 23.9998C15.0743 23.9998 18.1487 22.8294 20.4893 20.489C25.1702 15.8082 25.1702 8.19194 20.4893 3.51083ZM7.72837 5.64734C8.17143 5.20376 8.76186 4.95926 9.38947 4.95926C10.0171 4.95926 10.6075 5.20376 11.0511 5.64781C11.4947 6.09138 11.7389 6.6813 11.7389 7.30868C11.7389 7.93628 11.4947 8.5262 11.0506 8.97001C10.607 9.41382 10.0171 9.65809 9.38947 9.65809C8.76186 9.65809 8.17194 9.41387 7.72837 8.97001C7.28428 8.52616 7.04006 7.93628 7.04006 7.30868C7.04006 6.68107 7.28428 6.0912 7.72837 5.64734ZM8.12352 16.9838C7.97057 17.1367 7.77018 17.2132 7.56984 17.2132C7.3695 17.2132 7.16906 17.1367 7.01615 16.9838C6.71015 16.6782 6.71015 16.182 7.01611 15.8764L15.8764 7.01608C16.1823 6.71018 16.6779 6.71018 16.9838 7.01608C17.2898 7.32171 17.2898 7.81783 16.9838 8.1235L8.12352 16.9838ZM16.7936 17.8381C16.3506 18.2816 15.7601 18.5261 15.1325 18.5261C14.5049 18.5261 13.9145 18.2816 13.4709 17.8376C13.0273 17.3943 12.7831 16.8044 12.7831 16.1767C12.7831 15.5491 13.0273 14.9592 13.4714 14.5154C13.9145 14.0718 14.5049 13.8273 15.1325 13.8273C15.7601 13.8273 16.3506 14.0718 16.7941 14.5159C17.2377 14.9594 17.4819 15.5494 17.4819 16.1767C17.4819 16.8043 17.2377 17.3942 16.7936 17.8381Z" fill="#FFBC57"/>
</g>
<path d="M37.572 18H35.349V5.327H40.916C42.1953 5.327 43.2023 5.707 43.937 6.467C44.6843 7.227 45.058 8.17067 45.058 9.298C45.058 10.4127 44.6843 11.3563 43.937 12.129C43.2023 12.889 42.1953 13.269 40.916 13.269H37.572V18ZM40.612 11.312C41.2453 11.312 41.7647 11.1283 42.17 10.761C42.5753 10.3937 42.778 9.906 42.778 9.298C42.778 8.69 42.5753 8.20233 42.17 7.835C41.7647 7.46767 41.2453 7.284 40.612 7.284H37.572V11.312H40.612ZM50.7153 18.228C49.2966 18.228 48.1566 17.7657 47.2953 16.841C46.4339 15.9037 46.0033 14.7573 46.0033 13.402C46.0033 12.0467 46.4339 10.9067 47.2953 9.982C48.1566 9.05733 49.2966 8.595 50.7153 8.595C52.1466 8.595 53.2929 9.05733 54.1543 9.982C55.0156 10.9067 55.4463 12.0467 55.4463 13.402C55.4463 14.77 55.0156 15.9163 54.1543 16.841C53.2929 17.7657 52.1466 18.228 50.7153 18.228ZM50.7153 16.461C51.5386 16.461 52.1846 16.1697 52.6533 15.587C53.1346 14.9917 53.3753 14.2633 53.3753 13.402C53.3753 12.5533 53.1346 11.8377 52.6533 11.255C52.1846 10.6597 51.5386 10.362 50.7153 10.362C49.9046 10.362 49.2586 10.6597 48.7773 11.255C48.3086 11.8377 48.0742 12.5533 48.0742 13.402C48.0742 14.2633 48.3086 14.9917 48.7773 15.587C49.2586 16.1697 49.9046 16.461 50.7153 16.461ZM60.7709 18.228C58.9722 18.228 57.5662 17.734 56.5529 16.746L57.4839 15.473C58.3199 16.2203 59.4155 16.594 60.7709 16.594C61.4675 16.594 62.0122 16.4863 62.4049 16.271C62.8102 16.043 63.0129 15.739 63.0129 15.359C63.0129 14.561 62.2085 14.162 60.5999 14.162H58.6429V12.566H60.5999C61.2965 12.566 61.8412 12.4647 62.2339 12.262C62.6392 12.0593 62.8419 11.7617 62.8419 11.369C62.8419 11.0397 62.6329 10.7673 62.2149 10.552C61.7969 10.3367 61.2712 10.229 60.6379 10.229C59.4092 10.229 58.4275 10.5963 57.6929 11.331L56.7049 10.115C57.6802 9.11433 58.9595 8.614 60.5429 8.614C61.8982 8.60133 62.9622 8.823 63.7349 9.279C64.5202 9.72233 64.9129 10.3303 64.9129 11.103C64.9129 11.6857 64.6659 12.1797 64.1719 12.585C63.6905 12.9777 63.1269 13.2183 62.4809 13.307C63.1269 13.3577 63.7222 13.573 64.2669 13.953C64.8242 14.333 65.1029 14.8523 65.1029 15.511C65.1029 16.309 64.7102 16.9613 63.9249 17.468C63.1522 17.9747 62.1009 18.228 60.7709 18.228ZM75.3213 18H73.3263V10.571H69.1083V18H67.1133V8.823H75.3213V18ZM82.8521 18.228C81.6361 18.228 80.6545 17.7277 79.9071 16.727V21.496H77.9121V8.823H79.9071V10.077C80.6418 9.089 81.6235 8.595 82.8521 8.595C84.0555 8.595 85.0308 9.02567 85.7781 9.887C86.5381 10.7483 86.9181 11.92 86.9181 13.402C86.9181 14.884 86.5381 16.062 85.7781 16.936C85.0308 17.7973 84.0555 18.228 82.8521 18.228ZM82.2631 16.461C83.0485 16.461 83.6755 16.176 84.1441 15.606C84.6128 15.036 84.8471 14.3013 84.8471 13.402C84.8471 12.5027 84.6128 11.7743 84.1441 11.217C83.6755 10.647 83.0485 10.362 82.2631 10.362C81.8071 10.362 81.3575 10.4823 80.9141 10.723C80.4708 10.9637 80.1351 11.255 79.9071 11.597V15.226C80.1351 15.568 80.4708 15.8593 80.9141 16.1C81.3575 16.3407 81.8071 16.461 82.2631 16.461ZM93.0385 18.228C91.6198 18.228 90.4798 17.7657 89.6185 16.841C88.7572 15.9037 88.3265 14.7573 88.3265 13.402C88.3265 12.0467 88.7572 10.9067 89.6185 9.982C90.4798 9.05733 91.6198 8.595 93.0385 8.595C94.4698 8.595 95.6162 9.05733 96.4775 9.982C97.3388 10.9067 97.7695 12.0467 97.7695 13.402C97.7695 14.77 97.3388 15.9163 96.4775 16.841C95.6162 17.7657 94.4698 18.228 93.0385 18.228ZM93.0385 16.461C93.8618 16.461 94.5078 16.1697 94.9765 15.587C95.4578 14.9917 95.6985 14.2633 95.6985 13.402C95.6985 12.5533 95.4578 11.8377 94.9765 11.255C94.5078 10.6597 93.8618 10.362 93.0385 10.362C92.2278 10.362 91.5818 10.6597 91.1005 11.255C90.6318 11.8377 90.3975 12.5533 90.3975 13.402C90.3975 14.2633 90.6318 14.9917 91.1005 15.587C91.5818 16.1697 92.2278 16.461 93.0385 16.461ZM98.8381 20.337V16.347C99.2688 16.2457 99.5918 15.9987 99.8071 15.606C100.035 15.2007 100.219 14.428 100.358 13.288L100.909 8.823H107.996V16.252H109.003V20.337H107.008V18H100.833V20.337H98.8381ZM102.676 10.571L102.353 13.516C102.226 14.732 101.821 15.644 101.137 16.252H106.001V10.571H102.676ZM118.243 18H116.248V17.012C115.538 17.8227 114.55 18.228 113.284 18.228C112.448 18.228 111.707 17.962 111.061 17.43C110.415 16.8853 110.092 16.138 110.092 15.188C110.092 14.2127 110.408 13.4717 111.042 12.965C111.688 12.4583 112.435 12.205 113.284 12.205C114.588 12.205 115.576 12.5977 116.248 13.383V12.015C116.248 11.483 116.051 11.065 115.659 10.761C115.266 10.457 114.747 10.305 114.101 10.305C113.075 10.305 112.169 10.6913 111.384 11.464L110.567 10.077C111.605 9.089 112.891 8.595 114.424 8.595C115.551 8.595 116.469 8.861 117.179 9.393C117.888 9.925 118.243 10.7673 118.243 11.92V18ZM114.063 16.86C115.063 16.86 115.792 16.5433 116.248 15.91V14.523C115.792 13.8897 115.063 13.573 114.063 13.573C113.493 13.573 113.024 13.725 112.657 14.029C112.289 14.333 112.106 14.732 112.106 15.226C112.106 15.72 112.289 16.119 112.657 16.423C113.024 16.7143 113.493 16.86 114.063 16.86ZM122.159 18H119.651L123.546 12.984L119.727 8.823H122.197L125.484 12.414V8.823H127.479V12.414L130.766 8.823H133.236L129.417 12.984L133.312 18H130.804L127.992 14.219L127.479 14.751V18H125.484V14.751L124.971 14.219L122.159 18Z" fill="#535353"/>
<defs>
<clipPath id="clip0_46_233">
<rect width="24" height="24" fill="white"/>
</clipPath>
</defs>
</svg>
