<svg width="97" height="24" viewBox="0 0 97 24" fill="none" xmlns="http://www.w3.org/2000/svg">
<path d="M14.72 8.79L10.43 13.09L8.78 11.44C8.69036 11.3353 8.58004 11.2503 8.45597 11.1903C8.33191 11.1303 8.19678 11.0965 8.05906 11.0912C7.92134 11.0859 7.78401 11.1091 7.65568 11.1594C7.52736 11.2096 7.41081 11.2859 7.31335 11.3833C7.2159 11.4808 7.13964 11.5974 7.08937 11.7257C7.03909 11.854 7.01589 11.9913 7.02121 12.1291C7.02653 12.2668 7.06026 12.4019 7.12028 12.526C7.1803 12.65 7.26532 12.7604 7.37 12.85L9.72 15.21C9.81344 15.3027 9.92426 15.376 10.0461 15.4258C10.1679 15.4755 10.2984 15.5008 10.43 15.5C10.6923 15.4989 10.9437 15.3947 11.13 15.21L16.13 10.21C16.2237 10.117 16.2981 10.0064 16.3489 9.88458C16.3997 9.76272 16.4258 9.63201 16.4258 9.5C16.4258 9.36799 16.3997 9.23728 16.3489 9.11542C16.2981 8.99356 16.2237 8.88296 16.13 8.79C15.9426 8.60375 15.6892 8.49921 15.425 8.49921C15.1608 8.49921 14.9074 8.60375 14.72 8.79ZM12 2C10.0222 2 8.08879 2.58649 6.4443 3.6853C4.79981 4.78412 3.51809 6.3459 2.76121 8.17317C2.00433 10.0004 1.8063 12.0111 2.19215 13.9509C2.578 15.8907 3.53041 17.6725 4.92894 19.0711C6.32746 20.4696 8.10929 21.422 10.0491 21.8079C11.9889 22.1937 13.9996 21.9957 15.8268 21.2388C17.6541 20.4819 19.2159 19.2002 20.3147 17.5557C21.4135 15.9112 22 13.9778 22 12C22 10.6868 21.7413 9.38642 21.2388 8.17317C20.7363 6.95991 19.9997 5.85752 19.0711 4.92893C18.1425 4.00035 17.0401 3.26375 15.8268 2.7612C14.6136 2.25866 13.3132 2 12 2ZM12 20C10.4178 20 8.87104 19.5308 7.55544 18.6518C6.23985 17.7727 5.21447 16.5233 4.60897 15.0615C4.00347 13.5997 3.84504 11.9911 4.15372 10.4393C4.4624 8.88743 5.22433 7.46197 6.34315 6.34315C7.46197 5.22433 8.88743 4.4624 10.4393 4.15372C11.9911 3.84504 13.5997 4.00346 15.0615 4.60896C16.5233 5.21447 17.7727 6.23984 18.6518 7.55544C19.5308 8.87103 20 10.4177 20 12C20 14.1217 19.1572 16.1566 17.6569 17.6569C16.1566 19.1571 14.1217 20 12 20Z" fill="#82B09D"/>
<path d="M33.719 16H30.079V7.329H33.641C34.369 7.329 34.9497 7.52833 35.383 7.927C35.8163 8.32567 36.033 8.863 36.033 9.539C36.033 10.059 35.8813 10.501 35.578 10.865C35.2833 11.2203 34.928 11.4413 34.512 11.528C34.9713 11.5973 35.3657 11.8443 35.695 12.269C36.033 12.685 36.202 13.1487 36.202 13.66C36.202 14.3793 35.981 14.9513 35.539 15.376C35.097 15.792 34.4903 16 33.719 16ZM33.55 11.216C34.0873 11.216 34.5033 11.0687 34.798 10.774C35.1013 10.4707 35.253 10.085 35.253 9.617C35.253 9.15767 35.1013 8.77633 34.798 8.473C34.5033 8.161 34.0873 8.005 33.55 8.005H30.82V11.216H33.55ZM33.602 15.324C34.174 15.324 34.6203 15.1723 34.941 14.869C35.2617 14.557 35.422 14.1367 35.422 13.608C35.422 13.1313 35.2617 12.7283 34.941 12.399C34.6203 12.061 34.174 11.892 33.602 11.892H30.82V15.324H33.602ZM42.0786 16H41.4026V9.721H42.0786V12.451H45.6406V9.721H46.3166V16H45.6406V13.049H42.0786V16ZM53.0901 16H52.4141V15.259C51.8681 15.857 51.1575 16.156 50.2821 16.156C49.7015 16.156 49.1901 15.9697 48.7481 15.597C48.3061 15.2157 48.0851 14.7043 48.0851 14.063C48.0851 13.413 48.3018 12.906 48.7351 12.542C49.1771 12.1693 49.6928 11.983 50.2821 11.983C51.1661 11.983 51.8768 12.282 52.4141 12.88V11.606C52.4141 11.1553 52.2538 10.8043 51.9331 10.553C51.6125 10.293 51.2095 10.163 50.7241 10.163C49.9528 10.163 49.2985 10.4707 48.7611 11.086L48.3841 10.618C49.0341 9.916 49.8401 9.565 50.8021 9.565C51.4781 9.565 52.0285 9.734 52.4531 10.072C52.8778 10.41 53.0901 10.9127 53.0901 11.58V16ZM50.5161 15.623C51.3395 15.623 51.9721 15.337 52.4141 14.765V13.387C51.9635 12.8063 51.3308 12.516 50.5161 12.516C50.0048 12.516 49.5888 12.6633 49.2681 12.958C48.9561 13.2527 48.8001 13.6253 48.8001 14.076C48.8001 14.5267 48.9561 14.8993 49.2681 15.194C49.5888 15.48 50.0048 15.623 50.5161 15.623ZM55.8134 16H55.0074L56.7624 13.426C56.2511 13.3913 55.8394 13.2093 55.5274 12.88C55.2154 12.542 55.0594 12.1087 55.0594 11.58C55.0594 11.0427 55.2284 10.6007 55.5664 10.254C55.9131 9.89867 56.3811 9.721 56.9704 9.721H60.0904V16H59.4014V13.439H57.4904L55.8134 16ZM57.0224 12.841H59.4014V10.319H57.0224C56.6237 10.319 56.3117 10.436 56.0864 10.67C55.8697 10.8953 55.7614 11.1987 55.7614 11.58C55.7614 11.9613 55.8697 12.269 56.0864 12.503C56.3031 12.7283 56.6151 12.841 57.0224 12.841ZM65.4608 16H62.1848V9.721H65.4088C65.9288 9.721 66.3405 9.86833 66.6438 10.163C66.9558 10.449 67.1118 10.839 67.1118 11.333C67.1118 11.6883 67.0122 11.996 66.8128 12.256C66.6222 12.5073 66.3882 12.6763 66.1108 12.763C66.4228 12.8497 66.6872 13.0403 66.9038 13.335C67.1205 13.6297 67.2288 13.9503 67.2288 14.297C67.2288 14.8257 67.0685 15.2417 66.7478 15.545C66.4358 15.8483 66.0068 16 65.4608 16ZM65.3178 15.389C65.6905 15.389 65.9808 15.2893 66.1888 15.09C66.4055 14.882 66.5138 14.6003 66.5138 14.245C66.5138 13.9243 66.4055 13.647 66.1888 13.413C65.9808 13.179 65.6905 13.062 65.3178 13.062H62.8608V15.389H65.3178ZM65.2918 12.464C65.6472 12.464 65.9202 12.3643 66.1108 12.165C66.3102 11.9657 66.4098 11.71 66.4098 11.398C66.4098 11.0687 66.3102 10.8087 66.1108 10.618C65.9202 10.4187 65.6472 10.319 65.2918 10.319H62.8608V12.464H65.2918ZM69.894 16H69.218V9.721H69.894V12.451H73.456V9.721H74.132V16H73.456V13.049H69.894V16ZM78.8905 16.156C77.9892 16.156 77.2612 15.8397 76.7065 15.207C76.1519 14.5743 75.8745 13.79 75.8745 12.854C75.8745 11.918 76.1519 11.138 76.7065 10.514C77.2612 9.88133 77.9892 9.565 78.8905 9.565C79.8005 9.565 80.5329 9.88133 81.0875 10.514C81.6422 11.138 81.9195 11.918 81.9195 12.854C81.9195 13.79 81.6422 14.5743 81.0875 15.207C80.5329 15.8397 79.8005 16.156 78.8905 16.156ZM78.8905 15.545C79.6012 15.545 80.1602 15.285 80.5675 14.765C80.9835 14.2363 81.1915 13.5993 81.1915 12.854C81.1915 12.1173 80.9835 11.489 80.5675 10.969C80.1602 10.4403 79.6012 10.176 78.8905 10.176C78.1885 10.176 77.6295 10.4403 77.2135 10.969C76.8062 11.489 76.6025 12.1173 76.6025 12.854C76.6025 13.5907 76.8062 14.2233 77.2135 14.752C77.6295 15.2807 78.1885 15.545 78.8905 15.545ZM86.3563 16.156C85.4463 16.156 84.7096 15.8397 84.1463 15.207C83.583 14.5743 83.3013 13.79 83.3013 12.854C83.3013 11.918 83.583 11.138 84.1463 10.514C84.7096 9.88133 85.4463 9.565 86.3563 9.565C87.275 9.565 88.016 9.92033 88.5793 10.631L88.1113 11.047C87.6866 10.4663 87.1146 10.176 86.3953 10.176C85.676 10.176 85.0996 10.4317 84.6663 10.943C84.2416 11.4457 84.0293 12.0827 84.0293 12.854C84.0293 13.6253 84.2416 14.2667 84.6663 14.778C85.0996 15.2893 85.676 15.545 86.3953 15.545C87.106 15.545 87.678 15.2503 88.1113 14.661L88.5793 15.077C88.016 15.7963 87.275 16.156 86.3563 16.156ZM91.9091 16H91.2331V10.319H89.3871V9.721H93.7681V10.319H91.9091V16ZM95.5053 8.733C95.3666 8.733 95.2453 8.681 95.1413 8.577C95.0373 8.473 94.9853 8.35167 94.9853 8.213C94.9853 8.07433 95.0373 7.95733 95.1413 7.862C95.2453 7.758 95.3666 7.706 95.5053 7.706C95.6526 7.706 95.7739 7.758 95.8693 7.862C95.9733 7.95733 96.0253 8.07433 96.0253 8.213C96.0253 8.36033 95.9733 8.486 95.8693 8.59C95.7739 8.68533 95.6526 8.733 95.5053 8.733ZM95.8433 16H95.1673V9.721H95.8433V16Z" fill="#2B2929"/>
</svg>
