<svg width="149" height="24" viewBox="0 0 149 24" fill="none" xmlns="http://www.w3.org/2000/svg">
<path d="M0.532 20.337H2.755V18H11.343V20.337H13.566V16.043H12.388V5.327H3.781L3.04 11.844C2.603 15.587 1.9 16.1 0.532 16.252V20.337ZM5.244 11.996L5.776 7.284H10.165V16.043H3.572C4.427 15.264 5.016 13.972 5.244 11.996ZM17.127 18L21.421 11.654V18H23.416V8.823H21.421L17.203 14.998V8.823H15.208V18H17.127ZM31.6308 18C33.4168 18 34.4048 16.936 34.4048 15.511C34.4048 14.428 33.6638 13.497 32.6758 13.269C33.5118 13.022 34.2148 12.281 34.2148 11.179C34.2148 9.868 33.2458 8.823 31.4978 8.823H26.0068V18H31.6308ZM31.2128 16.252H28.0018V14.181H31.2128C31.9538 14.181 32.3528 14.675 32.3528 15.226C32.3528 15.872 31.9158 16.252 31.2128 16.252ZM31.1558 12.433H28.0018V10.571H31.1558C31.8018 10.571 32.1818 10.951 32.1818 11.521C32.1818 12.034 31.8018 12.433 31.1558 12.433ZM38.7989 18L43.0929 11.654V18H45.0879V8.823H43.0929L38.8749 14.998V8.823H36.8799V18H38.7989ZM51.3457 18V10.571H53.9867V8.823H46.7287V10.571H49.3507V18H51.3457ZM57.5391 18L61.8331 11.654V18H63.8281V8.823H61.8331L57.6151 14.998V8.823H55.6201V18H57.5391ZM70.599 18.228C72.385 18.228 73.468 17.468 74.114 16.594L72.803 15.378C72.29 16.081 71.587 16.461 70.694 16.461C69.022 16.461 67.92 15.188 67.92 13.402C67.92 11.616 69.022 10.362 70.694 10.362C71.587 10.362 72.29 10.723 72.803 11.445L74.114 10.229C73.468 9.355 72.385 8.595 70.599 8.595C67.806 8.595 65.849 10.628 65.849 13.402C65.849 16.195 67.806 18.228 70.599 18.228ZM75.8633 8.823V18H81.1073C83.0833 18 84.1473 16.651 84.1473 15.074C84.1473 13.497 83.1403 12.148 81.1073 12.148H77.8583V8.823H75.8633ZM80.8603 13.896C81.6583 13.896 82.1143 14.39 82.1143 15.074C82.1143 15.758 81.6583 16.252 80.8603 16.252H77.8583V13.896H80.8603ZM96.6279 18C98.4139 18 99.4019 16.936 99.4019 15.511C99.4019 14.428 98.6609 13.497 97.6729 13.269C98.5089 13.022 99.2119 12.281 99.2119 11.179C99.2119 9.868 98.2429 8.823 96.4949 8.823H91.0039V18H96.6279ZM96.2099 16.252H92.9989V14.181H96.2099C96.9509 14.181 97.3499 14.675 97.3499 15.226C97.3499 15.872 96.9129 16.252 96.2099 16.252ZM96.1529 12.433H92.9989V10.571H96.1529C96.7989 10.571 97.1789 10.951 97.1789 11.521C97.1789 12.034 96.7989 12.433 96.1529 12.433ZM106.057 18.228C107.843 18.228 108.926 17.468 109.572 16.594L108.261 15.378C107.748 16.081 107.045 16.461 106.152 16.461C104.48 16.461 103.378 15.188 103.378 13.402C103.378 11.616 104.48 10.362 106.152 10.362C107.045 10.362 107.748 10.723 108.261 11.445L109.572 10.229C108.926 9.355 107.843 8.595 106.057 8.595C103.264 8.595 101.307 10.628 101.307 13.402C101.307 16.195 103.264 18.228 106.057 18.228ZM112.309 7.702C112.993 7.702 113.544 7.151 113.544 6.467C113.544 5.783 112.993 5.232 112.309 5.232C111.644 5.232 111.074 5.783 111.074 6.467C111.074 7.151 111.644 7.702 112.309 7.702ZM113.316 18V8.823H111.321V18H113.316Z" fill="#FFBC57"/>
<path d="M142.92 6.62C142.818 6.37565 142.624 6.18147 142.38 6.08C142.26 6.02876 142.131 6.00158 142 6H132C131.735 6 131.48 6.10536 131.293 6.29289C131.105 6.48043 131 6.73478 131 7C131 7.26522 131.105 7.51957 131.293 7.70711C131.48 7.89464 131.735 8 132 8H139.59L131.29 16.29C131.196 16.383 131.122 16.4936 131.071 16.6154C131.02 16.7373 130.994 16.868 130.994 17C130.994 17.132 131.02 17.2627 131.071 17.3846C131.122 17.5064 131.196 17.617 131.29 17.71C131.383 17.8037 131.494 17.8781 131.615 17.9289C131.737 17.9797 131.868 18.0058 132 18.0058C132.132 18.0058 132.263 17.9797 132.385 17.9289C132.506 17.8781 132.617 17.8037 132.71 17.71L141 9.41V17C141 17.2652 141.105 17.5196 141.293 17.7071C141.48 17.8946 141.735 18 142 18C142.265 18 142.52 17.8946 142.707 17.7071C142.895 17.5196 143 17.2652 143 17V7C142.998 6.86932 142.971 6.74022 142.92 6.62Z" fill="#FFBC57"/>
</svg>
