<svg width="230" height="50" viewBox="0 0 230 50" fill="none" xmlns="http://www.w3.org/2000/svg">
<g clip-path="url(#clip0_44_199)">
<circle cx="25" cy="25" r="25" fill="#F8F8F8"/>
<path d="M33.0918 26.6961C32.8379 26.6961 32.5724 26.6153 32.3185 26.5576C31.8047 26.4427 31.2995 26.2923 30.8065 26.1074C30.2711 25.9126 29.6825 25.9228 29.1541 26.1358C28.6256 26.3489 28.1947 26.7499 27.9441 27.2616L27.6902 27.7925C26.5693 27.1568 25.5337 26.3811 24.6085 25.4842C23.7115 24.5589 22.9359 23.5234 22.3001 22.4025L22.8311 22.1601C23.3428 21.9096 23.7438 21.4786 23.9568 20.9502C24.1699 20.4217 24.18 19.8332 23.9852 19.2977C23.8019 18.8003 23.6516 18.2914 23.5351 17.7742C23.4774 17.5203 23.4312 17.2548 23.3966 17.0009C23.2564 16.1879 22.8306 15.4517 22.1958 14.9248C21.561 14.3979 20.7589 14.115 19.934 14.127H16.4599C15.972 14.1263 15.4894 14.2288 15.0439 14.4277C14.5983 14.6266 14.1999 14.9175 13.8746 15.2811C13.5425 15.6547 13.2953 16.0957 13.1499 16.5739C13.0044 17.052 12.9642 17.556 13.032 18.0512C13.6594 22.8551 15.8542 27.3178 19.2762 30.7473C22.7057 34.1692 27.1683 36.364 31.9722 36.9914C32.122 37.0029 32.2725 37.0029 32.4224 36.9914C33.2735 36.9927 34.0952 36.6804 34.7307 36.1142C35.0944 35.7889 35.3852 35.3905 35.5842 34.9449C35.7831 34.4994 35.8856 34.0168 35.8849 33.5289V30.0663C35.8787 29.2688 35.5974 28.4979 35.0885 27.8838C34.5795 27.2698 33.8743 26.8502 33.0918 26.6961ZM33.6573 33.6212C33.657 33.7822 33.6229 33.9414 33.5573 34.0885C33.4917 34.2356 33.396 34.3674 33.2765 34.4753C33.15 34.5905 32.9994 34.6762 32.8357 34.7261C32.672 34.776 32.4993 34.7889 32.33 34.7638C28.0229 34.2013 24.0202 32.2385 20.9382 29.1776C17.8536 26.093 15.8737 22.0763 15.3058 17.7511C15.2807 17.5818 15.2936 17.4091 15.3435 17.2454C15.3934 17.0817 15.4791 16.9312 15.5943 16.8047C15.7035 16.6837 15.8371 16.5872 15.9863 16.5215C16.1355 16.4559 16.2969 16.4226 16.4599 16.4238H19.9225C20.1893 16.4173 20.4501 16.5034 20.6606 16.6676C20.871 16.8317 21.0181 17.0637 21.0767 17.3241C21.0767 17.6357 21.1806 17.9589 21.2498 18.2705C21.3832 18.8751 21.5607 19.4692 21.7807 20.0479L20.1649 20.8097C19.8871 20.9372 19.6713 21.1696 19.5647 21.4561C19.4493 21.7371 19.4493 22.0522 19.5647 22.3332C21.2258 25.8913 24.0859 28.7514 27.644 30.4125C27.925 30.528 28.2402 30.528 28.5212 30.4125C28.8076 30.3059 29.0401 30.0901 29.1675 29.8124L29.8947 28.1965C30.4901 28.4136 31.0993 28.591 31.7183 28.7274C32.0184 28.7967 32.3416 28.8544 32.6532 28.9006C32.9136 28.9592 33.1456 29.1062 33.3097 29.3167C33.4738 29.5271 33.56 29.7879 33.5535 30.0547L33.6573 33.6212ZM26.8476 14C26.5822 14 26.3052 14 26.0397 14C25.7336 14.026 25.4504 14.1726 25.2523 14.4074C25.0542 14.6423 24.9576 14.9462 24.9836 15.2523C25.0096 15.5584 25.1562 15.8416 25.391 16.0397C25.6259 16.2377 25.9298 16.3344 26.2359 16.3084H26.8476C28.6843 16.3084 30.4457 17.038 31.7444 18.3367C33.0431 19.6354 33.7728 21.3968 33.7728 23.2335C33.7728 23.4413 33.7728 23.6375 33.7728 23.8452C33.7472 24.1497 33.8434 24.4519 34.0402 24.6856C34.2371 24.9193 34.5187 25.0653 34.8231 25.0917H34.9154C35.2043 25.0929 35.4832 24.9857 35.6969 24.7912C35.9106 24.5967 36.0436 24.3292 36.0696 24.0414C36.0696 23.776 36.0696 23.499 36.0696 23.2335C36.0696 20.7866 35.0984 18.4398 33.3692 16.7085C31.6401 14.9772 29.2945 14.0031 26.8476 14ZM29.156 23.2335C29.156 23.5396 29.2776 23.8332 29.4941 24.0496C29.7105 24.2661 30.0041 24.3877 30.3102 24.3877C30.6163 24.3877 30.9099 24.2661 31.1263 24.0496C31.3428 23.8332 31.4644 23.5396 31.4644 23.2335C31.4644 22.0091 30.978 20.8348 30.1122 19.969C29.2464 19.1032 28.0721 18.6168 26.8476 18.6168C26.5415 18.6168 26.2479 18.7384 26.0315 18.9548C25.815 19.1713 25.6934 19.4648 25.6934 19.7709C25.6934 20.077 25.815 20.3706 26.0315 20.5871C26.2479 20.8035 26.5415 20.9251 26.8476 20.9251C27.4598 20.9251 28.047 21.1683 28.4799 21.6012C28.9128 22.0341 29.156 22.6213 29.156 23.2335Z" fill="#535353"/>
</g>
<path d="M66.16 42.24C69.9 42.24 71.5 38.7 71.5 35.34C71.5 31.98 69.9 28.46 66.16 28.46C62.42 28.46 60.82 31.98 60.82 35.34C60.82 38.7 62.42 42.24 66.16 42.24ZM66.16 40.16C63.98 40.16 63.2 37.88 63.2 35.34C63.2 32.8 63.98 30.54 66.16 30.54C68.34 30.54 69.12 32.8 69.12 35.34C69.12 37.88 68.34 40.16 66.16 40.16ZM78.6442 42.24C81.6242 42.24 83.5642 40.24 83.5642 37.76C83.5642 34.92 81.5042 33.46 79.1042 33.46C77.5242 33.46 76.1242 34.42 75.5242 35.32C75.5042 35.2 75.5042 35.08 75.5042 34.94C75.5042 32.6 76.8042 30.54 79.0242 30.54C80.3042 30.54 81.0642 30.98 81.7642 31.72L82.8642 29.94C81.9642 29.06 80.6842 28.46 79.0242 28.46C75.1642 28.46 73.1442 31.5 73.1442 35.36C73.1442 39.06 74.7242 42.24 78.6442 42.24ZM78.5242 40.16C76.4642 40.16 75.6842 38.48 75.5442 37.04C76.2242 36.08 77.3242 35.46 78.4642 35.46C79.9242 35.46 81.2042 36.2 81.2042 37.84C81.2042 38.92 80.2842 40.16 78.5242 40.16ZM89.3159 42L94.4959 30.28V28.66H84.8759V30.72H91.7959L86.7559 42H89.3159ZM105.417 42.22C109.277 42.22 111.297 39.18 111.297 35.34C111.297 31.62 109.717 28.44 105.797 28.44C102.817 28.44 100.877 30.46 100.877 32.92C100.877 35.76 102.957 37.24 105.357 37.24C106.917 37.24 108.317 36.26 108.937 35.36C108.937 35.5 108.937 35.62 108.937 35.76C108.937 37.94 107.837 40.14 105.417 40.14C104.157 40.14 103.377 39.7 102.677 38.98L101.597 40.74C102.497 41.64 103.777 42.22 105.417 42.22ZM105.977 35.22C104.537 35.22 103.257 34.48 103.257 32.84C103.257 31.78 104.177 30.52 105.917 30.52C107.977 30.52 108.777 32.22 108.897 33.66C108.237 34.62 107.117 35.22 105.977 35.22ZM122.789 42V39.94H116.869C120.449 37.24 122.709 35.04 122.709 32.58C122.709 29.92 120.449 28.46 117.869 28.46C116.009 28.46 114.129 29.18 112.949 30.6L114.309 32.14C115.149 31.18 116.349 30.54 117.909 30.54C119.129 30.54 120.329 31.18 120.329 32.58C120.329 34.5 118.309 36.24 113.129 40.16V42H122.789ZM129.323 42.22C133.183 42.22 135.203 39.18 135.203 35.34C135.203 31.62 133.623 28.44 129.703 28.44C126.723 28.44 124.783 30.46 124.783 32.92C124.783 35.76 126.863 37.24 129.263 37.24C130.823 37.24 132.223 36.26 132.843 35.36C132.843 35.5 132.843 35.62 132.843 35.76C132.843 37.94 131.743 40.14 129.323 40.14C128.063 40.14 127.283 39.7 126.583 38.98L125.503 40.74C126.403 41.64 127.683 42.22 129.323 42.22ZM129.883 35.22C128.443 35.22 127.163 34.48 127.163 32.84C127.163 31.78 128.083 30.52 129.823 30.52C131.883 30.52 132.683 32.22 132.803 33.66C132.143 34.62 131.023 35.22 129.883 35.22ZM141.435 38.06V36.26H136.635V38.06H141.435ZM151.291 42V38.98H153.071V36.92H151.291V28.66H148.071L142.591 37.1V38.98H148.951V42H151.291ZM148.951 36.92H144.891L148.951 30.76V36.92ZM159.713 42.24C162.693 42.24 164.793 40.5 164.793 37.72C164.793 35 162.773 33.42 160.533 33.42C159.253 33.42 158.153 33.94 157.513 34.58V30.72H163.913V28.66H155.173V36.12L156.833 36.6C157.673 35.8 158.613 35.44 159.753 35.44C161.393 35.44 162.433 36.38 162.433 37.82C162.433 39.12 161.373 40.16 159.693 40.16C158.193 40.16 156.993 39.6 156.093 38.58L154.753 40.18C155.833 41.46 157.413 42.24 159.713 42.24ZM171.025 38.06V36.26H166.225V38.06H171.025ZM180.881 42V38.98H182.661V36.92H180.881V28.66H177.661L172.181 37.1V38.98H178.541V42H180.881ZM178.541 36.92H174.481L178.541 30.76V36.92ZM189.303 42.24C192.283 42.24 194.383 40.5 194.383 37.72C194.383 35 192.363 33.42 190.123 33.42C188.843 33.42 187.743 33.94 187.103 34.58V30.72H193.503V28.66H184.763V36.12L186.423 36.6C187.263 35.8 188.203 35.44 189.343 35.44C190.983 35.44 192.023 36.38 192.023 37.82C192.023 39.12 190.963 40.16 189.283 40.16C187.783 40.16 186.583 39.6 185.683 38.58L184.343 40.18C185.423 41.46 187.003 42.24 189.303 42.24Z" fill="#2B2929"/>
<path d="M70.803 6.329H71.544V14.324H72.324V16.599H71.583V15H61.196V6.329H61.95V14.324H65.993V6.329H66.747V14.324H70.803V6.329ZM76.5019 15.156C75.6005 15.156 74.8725 14.8397 74.3179 14.207C73.7632 13.5743 73.4859 12.79 73.4859 11.854C73.4859 10.918 73.7632 10.138 74.3179 9.514C74.8725 8.88133 75.6005 8.565 76.5019 8.565C77.4119 8.565 78.1442 8.88133 78.6989 9.514C79.2535 10.138 79.5309 10.918 79.5309 11.854C79.5309 12.79 79.2535 13.5743 78.6989 14.207C78.1442 14.8397 77.4119 15.156 76.5019 15.156ZM76.5019 14.545C77.2125 14.545 77.7715 14.285 78.1789 13.765C78.5949 13.2363 78.8029 12.5993 78.8029 11.854C78.8029 11.1173 78.5949 10.489 78.1789 9.969C77.7715 9.44033 77.2125 9.176 76.5019 9.176C75.7999 9.176 75.2409 9.44033 74.8249 9.969C74.4175 10.489 74.2139 11.1173 74.2139 11.854C74.2139 12.5907 74.4175 13.2233 74.8249 13.752C75.2409 14.2807 75.7999 14.545 76.5019 14.545ZM80.4576 16.599V14.441C80.787 14.3977 81.0556 14.194 81.2636 13.83C81.4716 13.466 81.6406 12.8073 81.7706 11.854L82.1866 8.721H86.1906V14.389H86.9446V16.599H86.2686V15H81.1466V16.599H80.4576ZM82.7976 9.319L82.4466 11.932C82.2646 13.2407 81.9396 14.0597 81.4716 14.389H85.5146V9.319H82.7976ZM89.1382 15H88.4622V8.721H89.1382V11.451H92.7002V8.721H93.3762V15H92.7002V12.049H89.1382V15ZM96.0937 15H95.2877L97.0427 12.426C96.5314 12.3913 96.1197 12.2093 95.8077 11.88C95.4957 11.542 95.3397 11.1087 95.3397 10.58C95.3397 10.0427 95.5087 9.60067 95.8467 9.254C96.1934 8.89867 96.6614 8.721 97.2507 8.721H100.371V15H99.6817V12.439H97.7707L96.0937 15ZM97.3027 11.841H99.6817V9.319H97.3027C96.904 9.319 96.592 9.436 96.3667 9.67C96.15 9.89533 96.0417 10.1987 96.0417 10.58C96.0417 10.9613 96.15 11.269 96.3667 11.503C96.5834 11.7283 96.8954 11.841 97.3027 11.841ZM108.013 15.156C106.826 15.156 105.894 14.8093 105.218 14.116L105.569 13.674C106.15 14.272 106.965 14.571 108.013 14.571C108.637 14.571 109.14 14.4583 109.521 14.233C109.903 13.999 110.093 13.687 110.093 13.297C110.093 12.4997 109.357 12.101 107.883 12.101H106.427V11.529H107.883C108.481 11.529 108.98 11.425 109.378 11.217C109.777 11.0003 109.976 10.6927 109.976 10.294C109.976 9.956 109.777 9.683 109.378 9.475C108.988 9.25833 108.494 9.15 107.896 9.15C106.978 9.15 106.254 9.42733 105.725 9.982L105.335 9.566C106.003 8.89867 106.848 8.565 107.87 8.565C108.694 8.565 109.37 8.71667 109.898 9.02C110.427 9.31467 110.691 9.722 110.691 10.242C110.691 10.6927 110.509 11.0523 110.145 11.321C109.79 11.5897 109.4 11.75 108.975 11.802C109.426 11.8367 109.846 11.984 110.236 12.244C110.626 12.4953 110.821 12.8593 110.821 13.336C110.821 13.8733 110.57 14.311 110.067 14.649C109.565 14.987 108.88 15.156 108.013 15.156ZM118.405 15.143C117.426 15.143 116.65 14.7747 116.078 14.038L116.507 13.505C116.984 14.1463 117.616 14.467 118.405 14.467C118.864 14.467 119.263 14.3587 119.601 14.142C119.948 13.9167 120.216 13.6177 120.407 13.245C120.598 12.8637 120.736 12.4607 120.823 12.036C120.918 11.6027 120.966 11.1433 120.966 10.658V10.255C120.741 10.6103 120.39 10.944 119.913 11.256C119.445 11.5593 118.947 11.711 118.418 11.711C117.595 11.711 116.923 11.4727 116.403 10.996C115.883 10.5193 115.623 9.839 115.623 8.955C115.623 8.201 115.887 7.551 116.416 7.005C116.945 6.459 117.651 6.186 118.535 6.186C118.986 6.186 119.393 6.26833 119.757 6.433C120.121 6.59767 120.424 6.81867 120.667 7.096C120.91 7.37333 121.109 7.707 121.265 8.097C121.43 8.47833 121.547 8.88133 121.616 9.306C121.685 9.73067 121.72 10.1857 121.72 10.671C121.72 11.1303 121.681 11.5723 121.603 11.997C121.534 12.413 121.412 12.816 121.239 13.206C121.066 13.596 120.853 13.934 120.602 14.22C120.359 14.4973 120.047 14.7227 119.666 14.896C119.285 15.0607 118.864 15.143 118.405 15.143ZM118.548 11.035C119.016 11.035 119.462 10.9007 119.887 10.632C120.32 10.3547 120.663 9.995 120.914 9.553C120.879 9.111 120.784 8.69933 120.628 8.318C120.472 7.93667 120.216 7.59867 119.861 7.304C119.506 7.00933 119.072 6.862 118.561 6.862C117.876 6.862 117.339 7.07867 116.949 7.512C116.568 7.93667 116.377 8.41333 116.377 8.942C116.377 9.62667 116.576 10.1467 116.975 10.502C117.374 10.8573 117.898 11.035 118.548 11.035ZM124.294 9.592C124.181 9.70467 124.047 9.761 123.891 9.761C123.735 9.761 123.6 9.70467 123.488 9.592C123.375 9.47933 123.319 9.34933 123.319 9.202C123.319 9.046 123.375 8.91167 123.488 8.799C123.6 8.68633 123.735 8.63 123.891 8.63C124.047 8.63 124.181 8.68633 124.294 8.799C124.415 8.91167 124.476 9.046 124.476 9.202C124.476 9.34933 124.415 9.47933 124.294 9.592ZM124.294 14.961C124.181 15.0737 124.047 15.13 123.891 15.13C123.735 15.13 123.6 15.0737 123.488 14.961C123.375 14.8397 123.319 14.701 123.319 14.545C123.319 14.3977 123.375 14.2677 123.488 14.155C123.6 14.0423 123.735 13.986 123.891 13.986C124.047 13.986 124.181 14.0423 124.294 14.155C124.415 14.2677 124.476 14.3977 124.476 14.545C124.476 14.701 124.415 14.8397 124.294 14.961ZM130.751 14.753C130.327 15.0217 129.837 15.156 129.282 15.156C128.728 15.156 128.234 15.0217 127.8 14.753C127.367 14.4843 127.029 14.129 126.786 13.687C126.552 13.2363 126.375 12.7597 126.253 12.257C126.132 11.7457 126.071 11.217 126.071 10.671C126.071 10.125 126.132 9.60067 126.253 9.098C126.375 8.58667 126.552 8.11 126.786 7.668C127.029 7.226 127.363 6.87067 127.787 6.602C128.221 6.33333 128.719 6.199 129.282 6.199C129.837 6.199 130.327 6.33333 130.751 6.602C131.176 6.87067 131.51 7.226 131.752 7.668C131.995 8.11 132.177 8.58667 132.298 9.098C132.42 9.60067 132.48 10.125 132.48 10.671C132.48 11.2083 132.42 11.7327 132.298 12.244C132.177 12.7553 131.995 13.2363 131.752 13.687C131.51 14.129 131.176 14.4843 130.751 14.753ZM129.282 14.48C129.716 14.48 130.093 14.3673 130.413 14.142C130.743 13.9167 130.994 13.6177 131.167 13.245C131.349 12.8637 131.479 12.4607 131.557 12.036C131.644 11.6027 131.687 11.1477 131.687 10.671C131.687 10.1943 131.644 9.74367 131.557 9.319C131.479 8.88567 131.349 8.48267 131.167 8.11C130.994 7.72867 130.743 7.42967 130.413 7.213C130.093 6.98767 129.716 6.875 129.282 6.875C128.84 6.875 128.455 6.98767 128.125 7.213C127.805 7.42967 127.553 7.72867 127.371 8.11C127.198 8.48267 127.068 8.88567 126.981 9.319C126.895 9.74367 126.851 10.1943 126.851 10.671C126.851 11.1477 126.895 11.6027 126.981 12.036C127.068 12.4607 127.198 12.8637 127.371 13.245C127.553 13.6177 127.805 13.9167 128.125 14.142C128.455 14.3673 128.84 14.48 129.282 14.48ZM138.661 14.753C138.236 15.0217 137.746 15.156 137.192 15.156C136.637 15.156 136.143 15.0217 135.71 14.753C135.276 14.4843 134.938 14.129 134.696 13.687C134.462 13.2363 134.284 12.7597 134.163 12.257C134.041 11.7457 133.981 11.217 133.981 10.671C133.981 10.125 134.041 9.60067 134.163 9.098C134.284 8.58667 134.462 8.11 134.696 7.668C134.938 7.226 135.272 6.87067 135.697 6.602C136.13 6.33333 136.628 6.199 137.192 6.199C137.746 6.199 138.236 6.33333 138.661 6.602C139.085 6.87067 139.419 7.226 139.662 7.668C139.904 8.11 140.086 8.58667 140.208 9.098C140.329 9.60067 140.39 10.125 140.39 10.671C140.39 11.2083 140.329 11.7327 140.208 12.244C140.086 12.7553 139.904 13.2363 139.662 13.687C139.419 14.129 139.085 14.4843 138.661 14.753ZM137.192 14.48C137.625 14.48 138.002 14.3673 138.323 14.142C138.652 13.9167 138.903 13.6177 139.077 13.245C139.259 12.8637 139.389 12.4607 139.467 12.036C139.553 11.6027 139.597 11.1477 139.597 10.671C139.597 10.1943 139.553 9.74367 139.467 9.319C139.389 8.88567 139.259 8.48267 139.077 8.11C138.903 7.72867 138.652 7.42967 138.323 7.213C138.002 6.98767 137.625 6.875 137.192 6.875C136.75 6.875 136.364 6.98767 136.035 7.213C135.714 7.42967 135.463 7.72867 135.281 8.11C135.107 8.48267 134.977 8.88567 134.891 9.319C134.804 9.74367 134.761 10.1943 134.761 10.671C134.761 11.1477 134.804 11.6027 134.891 12.036C134.977 12.4607 135.107 12.8637 135.281 13.245C135.463 13.6177 135.714 13.9167 136.035 14.142C136.364 14.3673 136.75 14.48 137.192 14.48ZM144.734 16.599V14.441C145.063 14.3977 145.332 14.194 145.54 13.83C145.748 13.466 145.917 12.8073 146.047 11.854L146.463 8.721H150.467V14.389H151.221V16.599H150.545V15H145.423V16.599H144.734ZM147.074 9.319L146.723 11.932C146.541 13.2407 146.216 14.0597 145.748 14.389H149.791V9.319H147.074ZM155.391 15.156C154.489 15.156 153.761 14.8397 153.207 14.207C152.652 13.5743 152.375 12.79 152.375 11.854C152.375 10.918 152.652 10.138 153.207 9.514C153.761 8.88133 154.489 8.565 155.391 8.565C156.301 8.565 157.033 8.88133 157.588 9.514C158.142 10.138 158.42 10.918 158.42 11.854C158.42 12.79 158.142 13.5743 157.588 14.207C157.033 14.8397 156.301 15.156 155.391 15.156ZM155.391 14.545C156.101 14.545 156.66 14.285 157.068 13.765C157.484 13.2363 157.692 12.5993 157.692 11.854C157.692 11.1173 157.484 10.489 157.068 9.969C156.66 9.44033 156.101 9.176 155.391 9.176C154.689 9.176 154.13 9.44033 153.714 9.969C153.306 10.489 153.103 11.1173 153.103 11.854C153.103 12.5907 153.306 13.2233 153.714 13.752C154.13 14.2807 154.689 14.545 155.391 14.545ZM165.402 15H164.661V7.343L163.27 8.825L162.815 8.344L164.726 6.329H165.402V15ZM170.194 15.156C169.344 15.156 168.638 14.9437 168.075 14.519C167.52 14.0857 167.243 13.5223 167.243 12.829C167.243 12.2657 167.451 11.7847 167.867 11.386C168.283 10.9787 168.794 10.6927 169.401 10.528C168.829 10.372 168.348 10.1207 167.958 9.774C167.576 9.41867 167.386 8.97233 167.386 8.435C167.386 7.71567 167.663 7.16533 168.218 6.784C168.772 6.394 169.431 6.199 170.194 6.199C170.939 6.199 171.593 6.394 172.157 6.784C172.72 7.16533 173.002 7.71567 173.002 8.435C173.002 8.97233 172.807 9.41867 172.417 9.774C172.035 10.1207 171.559 10.372 170.987 10.528C171.593 10.6927 172.1 10.9743 172.508 11.373C172.924 11.7717 173.132 12.257 173.132 12.829C173.132 13.5223 172.85 14.0857 172.287 14.519C171.732 14.9437 171.034 15.156 170.194 15.156ZM170.194 10.216C170.384 10.1813 170.571 10.1337 170.753 10.073C170.935 10.0037 171.151 9.90833 171.403 9.787C171.654 9.657 171.858 9.48367 172.014 9.267C172.17 9.04167 172.248 8.79033 172.248 8.513C172.248 8.01033 172.053 7.61167 171.663 7.317C171.273 7.02233 170.783 6.875 170.194 6.875C169.604 6.875 169.115 7.02233 168.725 7.317C168.335 7.61167 168.14 8.01033 168.14 8.513C168.14 8.79033 168.218 9.04167 168.374 9.267C168.53 9.48367 168.733 9.657 168.985 9.787C169.236 9.917 169.453 10.0123 169.635 10.073C169.817 10.1337 170.003 10.1813 170.194 10.216ZM170.194 14.48C170.783 14.48 171.294 14.324 171.728 14.012C172.17 13.6913 172.391 13.2797 172.391 12.777C172.391 12.465 172.304 12.1833 172.131 11.932C171.957 11.6807 171.741 11.4857 171.481 11.347C171.221 11.1997 170.982 11.087 170.766 11.009C170.549 10.931 170.358 10.8833 170.194 10.866C170.029 10.8833 169.834 10.931 169.609 11.009C169.392 11.087 169.154 11.1997 168.894 11.347C168.642 11.4857 168.43 11.6807 168.257 11.932C168.083 12.1833 167.997 12.465 167.997 12.777C167.997 13.2883 168.209 13.7 168.634 14.012C169.067 14.324 169.587 14.48 170.194 14.48ZM175.722 9.592C175.61 9.70467 175.475 9.761 175.319 9.761C175.163 9.761 175.029 9.70467 174.916 9.592C174.804 9.47933 174.747 9.34933 174.747 9.202C174.747 9.046 174.804 8.91167 174.916 8.799C175.029 8.68633 175.163 8.63 175.319 8.63C175.475 8.63 175.61 8.68633 175.722 8.799C175.844 8.91167 175.904 9.046 175.904 9.202C175.904 9.34933 175.844 9.47933 175.722 9.592ZM175.722 14.961C175.61 15.0737 175.475 15.13 175.319 15.13C175.163 15.13 175.029 15.0737 174.916 14.961C174.804 14.8397 174.747 14.701 174.747 14.545C174.747 14.3977 174.804 14.2677 174.916 14.155C175.029 14.0423 175.163 13.986 175.319 13.986C175.475 13.986 175.61 14.0423 175.722 14.155C175.844 14.2677 175.904 14.3977 175.904 14.545C175.904 14.701 175.844 14.8397 175.722 14.961ZM182.18 14.753C181.755 15.0217 181.266 15.156 180.711 15.156C180.156 15.156 179.662 15.0217 179.229 14.753C178.796 14.4843 178.458 14.129 178.215 13.687C177.981 13.2363 177.803 12.7597 177.682 12.257C177.561 11.7457 177.5 11.217 177.5 10.671C177.5 10.125 177.561 9.60067 177.682 9.098C177.803 8.58667 177.981 8.11 178.215 7.668C178.458 7.226 178.791 6.87067 179.216 6.602C179.649 6.33333 180.148 6.199 180.711 6.199C181.266 6.199 181.755 6.33333 182.18 6.602C182.605 6.87067 182.938 7.226 183.181 7.668C183.424 8.11 183.606 8.58667 183.727 9.098C183.848 9.60067 183.909 10.125 183.909 10.671C183.909 11.2083 183.848 11.7327 183.727 12.244C183.606 12.7553 183.424 13.2363 183.181 13.687C182.938 14.129 182.605 14.4843 182.18 14.753ZM180.711 14.48C181.144 14.48 181.521 14.3673 181.842 14.142C182.171 13.9167 182.423 13.6177 182.596 13.245C182.778 12.8637 182.908 12.4607 182.986 12.036C183.073 11.6027 183.116 11.1477 183.116 10.671C183.116 10.1943 183.073 9.74367 182.986 9.319C182.908 8.88567 182.778 8.48267 182.596 8.11C182.423 7.72867 182.171 7.42967 181.842 7.213C181.521 6.98767 181.144 6.875 180.711 6.875C180.269 6.875 179.883 6.98767 179.554 7.213C179.233 7.42967 178.982 7.72867 178.8 8.11C178.627 8.48267 178.497 8.88567 178.41 9.319C178.323 9.74367 178.28 10.1943 178.28 10.671C178.28 11.1477 178.323 11.6027 178.41 12.036C178.497 12.4607 178.627 12.8637 178.8 13.245C178.982 13.6177 179.233 13.9167 179.554 14.142C179.883 14.3673 180.269 14.48 180.711 14.48ZM190.089 14.753C189.665 15.0217 189.175 15.156 188.62 15.156C188.066 15.156 187.572 15.0217 187.138 14.753C186.705 14.4843 186.367 14.129 186.124 13.687C185.89 13.2363 185.713 12.7597 185.591 12.257C185.47 11.7457 185.409 11.217 185.409 10.671C185.409 10.125 185.47 9.60067 185.591 9.098C185.713 8.58667 185.89 8.11 186.124 7.668C186.367 7.226 186.701 6.87067 187.125 6.602C187.559 6.33333 188.057 6.199 188.62 6.199C189.175 6.199 189.665 6.33333 190.089 6.602C190.514 6.87067 190.848 7.226 191.09 7.668C191.333 8.11 191.515 8.58667 191.636 9.098C191.758 9.60067 191.818 10.125 191.818 10.671C191.818 11.2083 191.758 11.7327 191.636 12.244C191.515 12.7553 191.333 13.2363 191.09 13.687C190.848 14.129 190.514 14.4843 190.089 14.753ZM188.62 14.48C189.054 14.48 189.431 14.3673 189.751 14.142C190.081 13.9167 190.332 13.6177 190.505 13.245C190.687 12.8637 190.817 12.4607 190.895 12.036C190.982 11.6027 191.025 11.1477 191.025 10.671C191.025 10.1943 190.982 9.74367 190.895 9.319C190.817 8.88567 190.687 8.48267 190.505 8.11C190.332 7.72867 190.081 7.42967 189.751 7.213C189.431 6.98767 189.054 6.875 188.62 6.875C188.178 6.875 187.793 6.98767 187.463 7.213C187.143 7.42967 186.891 7.72867 186.709 8.11C186.536 8.48267 186.406 8.88567 186.319 9.319C186.233 9.74367 186.189 10.1943 186.189 10.671C186.189 11.1477 186.233 11.6027 186.319 12.036C186.406 12.4607 186.536 12.8637 186.709 13.245C186.891 13.6177 187.143 13.9167 187.463 14.142C187.793 14.3673 188.178 14.48 188.62 14.48Z" fill="#535353"/>
<path d="M218.71 27.83L222.95 23.59C223.044 23.497 223.118 23.3864 223.169 23.2646C223.22 23.1427 223.246 23.012 223.246 22.88C223.246 22.748 223.22 22.6173 223.169 22.4954C223.118 22.3736 223.044 22.263 222.95 22.17C222.763 21.9837 222.509 21.8792 222.245 21.8792C221.981 21.8792 221.727 21.9837 221.54 22.17L218 25.71L214.46 22.17C214.273 21.9837 214.019 21.8792 213.755 21.8792C213.491 21.8792 213.237 21.9837 213.05 22.17C212.957 22.2634 212.884 22.3743 212.834 22.4961C212.785 22.6179 212.759 22.7484 212.76 22.88C212.759 23.0116 212.785 23.1421 212.834 23.2639C212.884 23.3857 212.957 23.4966 213.05 23.59L217.29 27.83C217.383 27.9237 217.494 27.9981 217.615 28.0489C217.737 28.0997 217.868 28.1258 218 28.1258C218.132 28.1258 218.263 28.0997 218.385 28.0489C218.506 27.9981 218.617 27.9237 218.71 27.83Z" fill="#535353"/>
<defs>
<clipPath id="clip0_44_199">
<rect width="50" height="50" fill="white"/>
</clipPath>
</defs>
</svg>
