<svg width="421" height="50" viewBox="0 0 421 50" fill="none" xmlns="http://www.w3.org/2000/svg">
<rect x="0.5" y="0.5" width="420" height="49" rx="7.5" fill="white" stroke="#B1B1B1"/>
<g clip-path="url(#clip0_42_116)">
<path d="M404.677 35.061L400.413 30.8283C402.068 28.763 402.87 26.1416 402.653 23.5031C402.436 20.8646 401.217 18.4095 399.247 16.6426C397.277 14.8758 394.705 13.9315 392.061 14.0039C389.416 14.0763 386.9 15.1599 385.03 17.0319C383.159 18.904 382.076 21.4221 382.004 24.0686C381.932 26.715 382.875 29.2886 384.641 31.2602C386.406 33.2318 388.859 34.4515 391.496 34.6686C394.132 34.8856 396.752 34.0835 398.816 32.4271L403.045 36.6598C403.152 36.7676 403.279 36.8531 403.419 36.9115C403.559 36.9699 403.709 37 403.861 37C404.013 37 404.163 36.9699 404.303 36.9115C404.443 36.8531 404.57 36.7676 404.677 36.6598C404.884 36.4453 405 36.1587 405 35.8604C405 35.5621 404.884 35.2755 404.677 35.061ZM392.368 32.4271C390.777 32.4271 389.221 31.9549 387.898 31.0702C386.575 30.1855 385.544 28.928 384.935 27.4569C384.326 25.9857 384.167 24.3668 384.477 22.805C384.788 21.2432 385.554 19.8086 386.679 18.6826C387.804 17.5566 389.238 16.7898 390.798 16.4791C392.359 16.1685 393.977 16.3279 395.447 16.9373C396.917 17.5467 398.173 18.5786 399.057 19.9027C399.941 21.2267 400.413 22.7833 400.413 24.3757C400.413 26.5111 399.565 28.559 398.057 30.0689C396.548 31.5788 394.502 32.4271 392.368 32.4271Z" fill="#535353"/>
</g>
<path d="M25.144 30H23.816V20.512H17.576V30H16.248V19.328H25.144V30ZM33.7346 29.024C33.0413 29.8027 32.1186 30.192 30.9666 30.192C29.8146 30.192 28.8866 29.8027 28.1826 29.024C27.4893 28.2453 27.1426 27.28 27.1426 26.128C27.1426 24.976 27.4893 24.016 28.1826 23.248C28.8866 22.4693 29.8146 22.08 30.9666 22.08C32.1186 22.08 33.0413 22.4693 33.7346 23.248C34.4386 24.016 34.7906 24.976 34.7906 26.128C34.7906 27.28 34.4386 28.2453 33.7346 29.024ZM29.0786 28.256C29.548 28.832 30.1773 29.12 30.9666 29.12C31.756 29.12 32.38 28.832 32.8386 28.256C33.2973 27.6693 33.5266 26.96 33.5266 26.128C33.5266 25.296 33.2973 24.592 32.8386 24.016C32.38 23.44 31.756 23.152 30.9666 23.152C30.1773 23.152 29.548 23.4453 29.0786 24.032C28.62 24.608 28.3906 25.3067 28.3906 26.128C28.3906 26.96 28.62 27.6693 29.0786 28.256ZM45.6749 22.272H46.8749V30H36.7469V22.272H37.9469V28.944H41.2109V22.272H42.4109V28.944H45.6749V22.272ZM48.8461 33.024L49.0381 31.936C49.2301 32.0213 49.4488 32.064 49.6941 32.064C49.9715 32.064 50.2008 32.0053 50.3821 31.888C50.5635 31.7707 50.7181 31.5573 50.8461 31.248L51.3581 30.08L48.1261 22.272H49.4221L51.9981 28.608L54.5581 22.272H55.8701L51.9981 31.568C51.5715 32.592 50.8141 33.1147 49.7261 33.136C49.4061 33.136 49.1128 33.0987 48.8461 33.024ZM63.9219 30H62.3859L59.6019 26.528L58.3219 27.792V30H57.1219V22.272H58.3219V26.384L62.3859 22.272H63.9059L60.4819 25.776L63.9219 30ZM72.0736 30H70.8736V23.328H68.6336V22.272H74.3296V23.328H72.0736V30ZM82.0471 29.024C81.3538 29.8027 80.4311 30.192 79.2791 30.192C78.1271 30.192 77.1991 29.8027 76.4951 29.024C75.8018 28.2453 75.4551 27.28 75.4551 26.128C75.4551 24.976 75.8018 24.016 76.4951 23.248C77.1991 22.4693 78.1271 22.08 79.2791 22.08C80.4311 22.08 81.3538 22.4693 82.0471 23.248C82.7511 24.016 83.1031 24.976 83.1031 26.128C83.1031 27.28 82.7511 28.2453 82.0471 29.024ZM77.3911 28.256C77.8605 28.832 78.4898 29.12 79.2791 29.12C80.0685 29.12 80.6925 28.832 81.1511 28.256C81.6098 27.6693 81.8391 26.96 81.8391 26.128C81.8391 25.296 81.6098 24.592 81.1511 24.016C80.6925 23.44 80.0685 23.152 79.2791 23.152C78.4898 23.152 77.8605 23.4453 77.3911 24.032C76.9325 24.608 76.7031 25.3067 76.7031 26.128C76.7031 26.96 76.9325 27.6693 77.3911 28.256ZM89.3954 30H85.0594V22.272H89.3154C89.9874 22.272 90.5154 22.4533 90.8994 22.816C91.294 23.1787 91.4914 23.6587 91.4914 24.256C91.4914 24.6933 91.3687 25.072 91.1234 25.392C90.8887 25.7013 90.5954 25.9093 90.2434 26.016C90.638 26.112 90.9687 26.3413 91.2354 26.704C91.5127 27.0667 91.6514 27.4667 91.6514 27.904C91.6514 28.5333 91.4487 29.04 91.0434 29.424C90.6487 29.808 90.0994 30 89.3954 30ZM89.1554 28.944C89.5394 28.944 89.8434 28.8373 90.0674 28.624C90.2914 28.4107 90.4034 28.1227 90.4034 27.76C90.4034 27.4293 90.2914 27.1467 90.0674 26.912C89.8434 26.6773 89.5394 26.56 89.1554 26.56H86.2594V28.944H89.1554ZM89.1074 25.504C89.47 25.504 89.7527 25.408 89.9554 25.216C90.158 25.0133 90.2594 24.752 90.2594 24.432C90.2594 24.0907 90.158 23.824 89.9554 23.632C89.7527 23.4293 89.47 23.328 89.1074 23.328H86.2594V25.504H89.1074ZM99.9508 30H98.7508V29.12C98.1001 29.8347 97.2468 30.192 96.1908 30.192C95.4761 30.192 94.8468 29.9627 94.3028 29.504C93.7588 29.0453 93.4868 28.4213 93.4868 27.632C93.4868 26.8213 93.7534 26.1973 94.2868 25.76C94.8308 25.312 95.4654 25.088 96.1908 25.088C97.2894 25.088 98.1428 25.44 98.7508 26.144V24.752C98.7508 24.24 98.5694 23.84 98.2068 23.552C97.8441 23.264 97.3748 23.12 96.7988 23.12C95.8921 23.12 95.1028 23.4773 94.4308 24.192L93.8708 23.36C94.6921 22.5067 95.7214 22.08 96.9588 22.08C97.8441 22.08 98.5641 22.2933 99.1188 22.72C99.6734 23.1467 99.9508 23.8027 99.9508 24.688V30ZM96.6228 29.328C97.5828 29.328 98.2921 29.008 98.7508 28.368V26.912C98.2921 26.272 97.5828 25.952 96.6228 25.952C96.0681 25.952 95.6094 26.112 95.2468 26.432C94.8948 26.7413 94.7188 27.1467 94.7188 27.648C94.7188 28.1387 94.8948 28.544 95.2468 28.864C95.6094 29.1733 96.0681 29.328 96.6228 29.328ZM106.164 30.192C105.076 30.192 104.207 29.7387 103.556 28.832V32.944H102.356V22.272H103.556V23.424C103.844 23.0187 104.218 22.6933 104.676 22.448C105.135 22.2027 105.631 22.08 106.164 22.08C107.188 22.08 108.015 22.448 108.644 23.184C109.284 23.9093 109.604 24.8907 109.604 26.128C109.604 27.3653 109.284 28.352 108.644 29.088C108.015 29.824 107.188 30.192 106.164 30.192ZM105.86 29.12C106.618 29.12 107.22 28.8427 107.668 28.288C108.116 27.7227 108.34 27.0027 108.34 26.128C108.34 25.2533 108.116 24.5387 107.668 23.984C107.22 23.4293 106.618 23.152 105.86 23.152C105.402 23.152 104.954 23.2747 104.516 23.52C104.09 23.7547 103.77 24.0427 103.556 24.384V27.872C103.77 28.224 104.09 28.5227 104.516 28.768C104.954 29.0027 105.402 29.12 105.86 29.12ZM112.105 21.168C111.891 21.168 111.705 21.0933 111.545 20.944C111.385 20.784 111.305 20.592 111.305 20.368C111.305 20.144 111.385 19.952 111.545 19.792C111.705 19.632 111.891 19.552 112.105 19.552C112.329 19.552 112.521 19.632 112.681 19.792C112.841 19.952 112.921 20.144 112.921 20.368C112.921 20.592 112.841 20.784 112.681 20.944C112.521 21.0933 112.329 21.168 112.105 21.168ZM112.713 30H111.513V22.272H112.713V30ZM119.442 30H115.106V22.272H119.362C120.034 22.272 120.562 22.4533 120.946 22.816C121.341 23.1787 121.538 23.6587 121.538 24.256C121.538 24.6933 121.416 25.072 121.17 25.392C120.936 25.7013 120.642 25.9093 120.29 26.016C120.685 26.112 121.016 26.3413 121.282 26.704C121.56 27.0667 121.698 27.4667 121.698 27.904C121.698 28.5333 121.496 29.04 121.09 29.424C120.696 29.808 120.146 30 119.442 30ZM119.202 28.944C119.586 28.944 119.89 28.8373 120.114 28.624C120.338 28.4107 120.45 28.1227 120.45 27.76C120.45 27.4293 120.338 27.1467 120.114 26.912C119.89 26.6773 119.586 26.56 119.202 26.56H116.306V28.944H119.202ZM119.154 25.504C119.517 25.504 119.8 25.408 120.002 25.216C120.205 25.0133 120.306 24.752 120.306 24.432C120.306 24.0907 120.205 23.824 120.002 23.632C119.8 23.4293 119.517 23.328 119.154 23.328H116.306V25.504H119.154Z" fill="#B1B1B1"/>
<defs>
<clipPath id="clip0_42_116">
<rect width="24" height="24" fill="white" transform="translate(382 13)"/>
</clipPath>
</defs>
</svg>
