<svg width="50" height="50" viewBox="0 0 50 50" fill="none" xmlns="http://www.w3.org/2000/svg">
<path d="M41.6667 22.9167H8.33333C7.08333 22.9167 6.25 23.75 6.25 25C6.25 26.25 7.08333 27.0833 8.33333 27.0833H41.6667C42.9167 27.0833 43.75 26.25 43.75 25C43.75 23.75 42.9167 22.9167 41.6667 22.9167ZM8.33333 16.6667H41.6667C42.9167 16.6667 43.75 15.8333 43.75 14.5833C43.75 13.3333 42.9167 12.5 41.6667 12.5H8.33333C7.08333 12.5 6.25 13.3333 6.25 14.5833C6.25 15.8333 7.08333 16.6667 8.33333 16.6667ZM41.6667 33.3333H8.33333C7.08333 33.3333 6.25 34.1667 6.25 35.4167C6.25 36.6667 7.08333 37.5 8.33333 37.5H41.6667C42.9167 37.5 43.75 36.6667 43.75 35.4167C43.75 34.1667 42.9167 33.3333 41.6667 33.3333Z" fill="#535353"/>
</svg>
