<svg width="25" height="25" viewBox="0 0 25 25" fill="none" xmlns="http://www.w3.org/2000/svg">
<mask id="path-1-inside-1_131_351" fill="white">
<path d="M18.75 10.625C18.724 12.4479 18.2031 14.0495 17.1875 15.4297L22.1484 20.3516C22.3828 20.612 22.5 20.9115 22.5 21.25C22.5 21.5885 22.3828 21.888 22.1484 22.1484C21.888 22.3828 21.5885 22.5 21.25 22.5C20.9115 22.5 20.612 22.3828 20.3516 22.1484L15.4297 17.1875C14.0495 18.2031 12.4479 18.724 10.625 18.75C8.33333 18.6979 6.41927 17.9036 4.88281 16.3672C3.34635 14.8307 2.55208 12.9167 2.5 10.625C2.55208 8.33333 3.34635 6.41927 4.88281 4.88281C6.41927 3.34635 8.33333 2.55208 10.625 2.5C12.9167 2.55208 14.8307 3.34635 16.3672 4.88281C17.9036 6.41927 18.6979 8.33333 18.75 10.625ZM10.625 16.25C11.6406 16.25 12.5781 16.0026 13.4375 15.5078C14.2969 15.013 14.987 14.3229 15.5078 13.4375C16.0026 12.5521 16.25 11.6146 16.25 10.625C16.25 9.63542 16.0026 8.69792 15.5078 7.8125C14.987 6.92708 14.2969 6.23698 13.4375 5.74219C12.5781 5.2474 11.6406 5 10.625 5C9.60938 5 8.67188 5.2474 7.8125 5.74219C6.95312 6.23698 6.26302 6.92708 5.74219 7.8125C5.2474 8.69792 5 9.63542 5 10.625C5 11.6146 5.2474 12.5521 5.74219 13.4375C6.26302 14.3229 6.95312 15.013 7.8125 15.5078C8.67188 16.0026 9.60938 16.25 10.625 16.25Z"/>
</mask>
<path d="M18.75 10.625C18.724 12.4479 18.2031 14.0495 17.1875 15.4297L22.1484 20.3516C22.3828 20.612 22.5 20.9115 22.5 21.25C22.5 21.5885 22.3828 21.888 22.1484 22.1484C21.888 22.3828 21.5885 22.5 21.25 22.5C20.9115 22.5 20.612 22.3828 20.3516 22.1484L15.4297 17.1875C14.0495 18.2031 12.4479 18.724 10.625 18.75C8.33333 18.6979 6.41927 17.9036 4.88281 16.3672C3.34635 14.8307 2.55208 12.9167 2.5 10.625C2.55208 8.33333 3.34635 6.41927 4.88281 4.88281C6.41927 3.34635 8.33333 2.55208 10.625 2.5C12.9167 2.55208 14.8307 3.34635 16.3672 4.88281C17.9036 6.41927 18.6979 8.33333 18.75 10.625ZM10.625 16.25C11.6406 16.25 12.5781 16.0026 13.4375 15.5078C14.2969 15.013 14.987 14.3229 15.5078 13.4375C16.0026 12.5521 16.25 11.6146 16.25 10.625C16.25 9.63542 16.0026 8.69792 15.5078 7.8125C14.987 6.92708 14.2969 6.23698 13.4375 5.74219C12.5781 5.2474 11.6406 5 10.625 5C9.60938 5 8.67188 5.2474 7.8125 5.74219C6.95312 6.23698 6.26302 6.92708 5.74219 7.8125C5.2474 8.69792 5 9.63542 5 10.625C5 11.6146 5.2474 12.5521 5.74219 13.4375C6.26302 14.3229 6.95312 15.013 7.8125 15.5078C8.67188 16.0026 9.60938 16.25 10.625 16.25Z" fill="#1E2832"/>
<path d="M18.75 10.625L19.2499 10.6321L19.2501 10.6229L19.2499 10.6136L18.75 10.625ZM17.1875 15.4297L16.7848 15.1333L16.5291 15.4808L16.8353 15.7846L17.1875 15.4297ZM22.1484 20.3516L22.5201 20.0171L22.5106 20.0066L22.5006 19.9966L22.1484 20.3516ZM22.1484 22.1484L22.4829 22.5201L22.5025 22.5025L22.5201 22.4829L22.1484 22.1484ZM20.3516 22.1484L19.9966 22.5006L20.0066 22.5106L20.0171 22.5201L20.3516 22.1484ZM15.4297 17.1875L15.7846 16.8353L15.4808 16.5291L15.1333 16.7848L15.4297 17.1875ZM10.625 18.75L10.6136 19.2499L10.6229 19.2501L10.6321 19.2499L10.625 18.75ZM4.88281 16.3672L4.52926 16.7207L4.88281 16.3672ZM2.5 10.625L2.00013 10.6136L1.99987 10.625L2.00013 10.6364L2.5 10.625ZM10.625 2.5L10.6364 2.00013L10.625 1.99987L10.6136 2.00013L10.625 2.5ZM15.5078 13.4375L15.9389 13.6911L15.9443 13.6814L15.5078 13.4375ZM15.5078 7.8125L15.9444 7.56853L15.9388 7.55899L15.5078 7.8125ZM5.74219 7.8125L5.31111 7.55893L5.30572 7.56859L5.74219 7.8125ZM5.74219 13.4375L5.30561 13.6815L5.31122 13.691L5.74219 13.4375ZM18.2501 10.6179C18.2254 12.3436 17.7346 13.8426 16.7848 15.1333L17.5902 15.726C18.6716 14.2564 19.2225 12.5522 19.2499 10.6321L18.2501 10.6179ZM16.8353 15.7846L21.7963 20.7065L22.5006 19.9966L17.5397 15.0747L16.8353 15.7846ZM21.7768 20.686C21.9317 20.8582 22 21.0396 22 21.25H23C23 20.7833 22.8339 20.3658 22.5201 20.0171L21.7768 20.686ZM22 21.25C22 21.4604 21.9317 21.6418 21.7768 21.814L22.5201 22.4829C22.8339 22.1342 23 21.7167 23 21.25H22ZM21.814 21.7768C21.6418 21.9317 21.4604 22 21.25 22V23C21.7167 23 22.1342 22.8339 22.4829 22.5201L21.814 21.7768ZM21.25 22C21.0396 22 20.8582 21.9317 20.686 21.7768L20.0171 22.5201C20.3658 22.8339 20.7833 23 21.25 23V22ZM20.7065 21.7963L15.7846 16.8353L15.0747 17.5397L19.9966 22.5006L20.7065 21.7963ZM15.1333 16.7848C13.8426 17.7346 12.3436 18.2254 10.6179 18.2501L10.6321 19.2499C12.5522 19.2225 14.2564 18.6716 15.726 17.5902L15.1333 16.7848ZM10.6364 18.2501C8.46554 18.2008 6.67647 17.4537 5.23637 16.0136L4.52926 16.7207C6.16208 18.3536 8.20113 19.195 10.6136 19.2499L10.6364 18.2501ZM5.23637 16.0136C3.79627 14.5735 3.04921 12.7845 2.99987 10.6136L2.00013 10.6364C2.05496 13.0489 2.89644 15.0879 4.52926 16.7207L5.23637 16.0136ZM2.99987 10.6364C3.04921 8.46554 3.79627 6.67647 5.23637 5.23637L4.52926 4.52926C2.89644 6.16208 2.05496 8.20113 2.00013 10.6136L2.99987 10.6364ZM5.23637 5.23637C6.67647 3.79627 8.46554 3.04921 10.6364 2.99987L10.6136 2.00013C8.20113 2.05496 6.16208 2.89644 4.52926 4.52926L5.23637 5.23637ZM10.6136 2.99987C12.7845 3.04921 14.5735 3.79627 16.0136 5.23637L16.7207 4.52926C15.0879 2.89644 13.0489 2.05496 10.6364 2.00013L10.6136 2.99987ZM16.0136 5.23637C17.4537 6.67647 18.2008 8.46554 18.2501 10.6364L19.2499 10.6136C19.195 8.20113 18.3536 6.16208 16.7207 4.52926L16.0136 5.23637ZM10.625 16.75C11.726 16.75 12.7498 16.4807 13.687 15.9411L13.188 15.0745C12.4064 15.5245 11.5553 15.75 10.625 15.75V16.75ZM13.687 15.9411C14.6242 15.4015 15.3757 14.6483 15.9388 13.691L15.0768 13.184C14.5983 13.9976 13.9696 14.6245 13.188 15.0745L13.687 15.9411ZM15.9443 13.6814C16.4796 12.7234 16.75 11.7022 16.75 10.625H15.75C15.75 11.527 15.5256 12.3808 15.0713 13.1936L15.9443 13.6814ZM16.75 10.625C16.75 9.54782 16.4796 8.52661 15.9443 7.56859L15.0713 8.05641C15.5256 8.86923 15.75 9.72301 15.75 10.625H16.75ZM15.9388 7.55899C15.3757 6.60173 14.6242 5.84846 13.687 5.30888L13.188 6.1755C13.9696 6.62549 14.5983 7.25244 15.0768 8.06601L15.9388 7.55899ZM13.687 5.30888C12.7498 4.7693 11.726 4.5 10.625 4.5V5.5C11.5553 5.5 12.4064 5.72549 13.188 6.1755L13.687 5.30888ZM10.625 4.5C9.52403 4.5 8.50018 4.7693 7.56302 5.30888L8.06198 6.1755C8.84357 5.72549 9.69472 5.5 10.625 5.5V4.5ZM7.56302 5.30888C6.62584 5.84846 5.87431 6.60173 5.31122 7.55899L6.17315 8.06601C6.65173 7.25244 7.28041 6.62549 8.06198 6.1755L7.56302 5.30888ZM5.30572 7.56859C4.77035 8.52661 4.5 9.54782 4.5 10.625H5.5C5.5 9.72301 5.72444 8.86923 6.17866 8.05641L5.30572 7.56859ZM4.5 10.625C4.5 11.7022 4.77035 12.7234 5.30572 13.6814L6.17866 13.1936C5.72444 12.3808 5.5 11.527 5.5 10.625H4.5ZM5.31122 13.691C5.87431 14.6483 6.62584 15.4015 7.56302 15.9411L8.06198 15.0745C7.28041 14.6245 6.65173 13.9976 6.17315 13.184L5.31122 13.691ZM7.56302 15.9411C8.50018 16.4807 9.52403 16.75 10.625 16.75V15.75C9.69472 15.75 8.84357 15.5245 8.06198 15.0745L7.56302 15.9411Z" fill="white" mask="url(#path-1-inside-1_131_351)"/>
</svg>
