<svg width="221" height="31" viewBox="0 0 221 31" fill="none" xmlns="http://www.w3.org/2000/svg">
<path d="M0.0600001 30V0.4H12.54C13.5 0.4 14.4733 0.52 15.46 0.76C16.4733 0.973332 17.3933 1.42666 18.22 2.12C19.0733 2.78666 19.7533 3.8 20.26 5.16C20.7933 6.52 21.06 8.32 21.06 10.56C21.06 12.8 20.7933 14.6133 20.26 16C19.7533 17.3867 19.0867 18.44 18.26 19.16C17.4333 19.88 16.54 20.36 15.58 20.6C14.62 20.84 13.6867 20.96 12.78 20.96C12.3 20.96 11.74 20.9467 11.1 20.92C10.46 20.8667 9.80667 20.8 9.14 20.72C8.5 20.64 7.9 20.5733 7.34 20.52C6.78 20.44 6.32667 20.3733 5.98 20.32V30H0.0600001ZM5.98 15.64H11.86C12.5533 15.64 13.14 15.48 13.62 15.16C14.1267 14.8133 14.5 14.28 14.74 13.56C14.98 12.8133 15.1 11.8267 15.1 10.6C15.1 9.4 14.9667 8.45333 14.7 7.76C14.46 7.04 14.1 6.52 13.62 6.2C13.1667 5.88 12.62 5.72 11.98 5.72H5.98V15.64ZM31.9038 30C30.3838 30 29.0904 29.7733 28.0238 29.32C26.9838 28.84 26.1971 28.0933 25.6638 27.08C25.1571 26.04 24.9038 24.68 24.9038 23V0.4H30.8238V22.04C30.8238 22.68 30.9304 23.2 31.1438 23.6C31.3838 24 31.7038 24.28 32.1038 24.44C32.5038 24.5733 32.9571 24.64 33.4638 24.64H42.8238V30H31.9038ZM44.43 30L53.71 0.4H61.19L70.47 30H64.31L62.43 23.8H52.35L50.51 30H44.43ZM53.75 18.48H61.03L57.39 5.48L53.75 18.48ZM78.5453 30V21.04L69.6253 0.4H75.7853L81.6253 15L87.4253 0.4H93.3453L84.4653 21.04V30H78.5453ZM114.335 30L105.055 0.4H111.175L118.095 23.6L125.015 0.4H131.095L121.815 30H114.335ZM134.318 30V0.4H140.238V30H134.318ZM145.373 30V0.4H157.893C159.893 0.4 161.559 0.759999 162.893 1.48C164.226 2.17333 165.279 3.18667 166.053 4.52C166.853 5.82667 167.413 7.38667 167.733 9.2C168.053 11.0133 168.213 13.0133 168.213 15.2C168.213 18.5333 167.826 21.2933 167.053 23.48C166.306 25.6667 165.173 27.3067 163.653 28.4C162.133 29.4667 160.213 30 157.893 30H145.373ZM151.293 24.68H157.293C158.519 24.68 159.493 24.3333 160.213 23.64C160.933 22.92 161.453 21.8533 161.773 20.44C162.119 19.0267 162.293 17.28 162.293 15.2C162.293 13.28 162.186 11.7067 161.973 10.48C161.759 9.22667 161.439 8.25333 161.013 7.56C160.613 6.86667 160.093 6.38667 159.453 6.12C158.839 5.85333 158.119 5.72 157.293 5.72H151.293V24.68ZM179.76 30.2C179.12 30.2 178.387 30.1333 177.56 30C176.733 29.8933 175.933 29.6267 175.16 29.2C174.413 28.7733 173.787 28.1333 173.28 27.28C172.8 26.4 172.56 25.2 172.56 23.68V7.16C172.56 5.85333 172.76 4.76 173.16 3.88C173.56 3 174.093 2.30666 174.76 1.8C175.427 1.29333 176.16 0.933332 176.96 0.719998C177.76 0.506666 178.547 0.4 179.32 0.4C181.32 0.4 183.08 0.426666 184.6 0.479999C186.147 0.533331 187.533 0.599998 188.76 0.679998C189.987 0.733333 191.107 0.813332 192.12 0.919998V5.88H181.08C180.253 5.88 179.613 6.08 179.16 6.48C178.707 6.88 178.48 7.49333 178.48 8.32V12.6L190.2 12.92V17.6L178.48 17.92V22C178.48 22.6933 178.587 23.24 178.8 23.64C179.04 24.0133 179.347 24.28 179.72 24.44C180.12 24.5733 180.533 24.64 180.96 24.64H192.12V29.6C190.947 29.7333 189.64 29.84 188.2 29.92C186.787 30 185.347 30.0667 183.88 30.12C182.44 30.1733 181.067 30.2 179.76 30.2ZM207.867 30.24C205.841 30.24 204.067 30.0533 202.547 29.68C201.027 29.28 199.747 28.56 198.707 27.52C197.694 26.4533 196.934 24.9333 196.427 22.96C195.921 20.9867 195.667 18.4133 195.667 15.24C195.667 12.0667 195.921 9.49333 196.427 7.52C196.961 5.52 197.734 3.98667 198.747 2.92C199.761 1.85333 201.027 1.12 202.547 0.719998C204.067 0.319998 205.841 0.119998 207.867 0.119998C209.894 0.119998 211.667 0.319998 213.187 0.719998C214.707 1.12 215.974 1.85333 216.987 2.92C218.001 3.98667 218.761 5.52 219.267 7.52C219.774 9.49333 220.027 12.0667 220.027 15.24C220.027 18.4133 219.774 20.9867 219.267 22.96C218.761 24.9333 218.001 26.4533 216.987 27.52C215.974 28.56 214.707 29.28 213.187 29.68C211.667 30.0533 209.894 30.24 207.867 30.24ZM207.867 24.92C209.067 24.92 210.067 24.7867 210.867 24.52C211.667 24.2533 212.294 23.7867 212.747 23.12C213.227 22.4267 213.574 21.4533 213.787 20.2C214.001 18.92 214.107 17.2667 214.107 15.24C214.107 13.1067 214.001 11.4 213.787 10.12C213.574 8.84 213.227 7.86667 212.747 7.2C212.294 6.50667 211.667 6.04 210.867 5.8C210.067 5.56 209.067 5.44 207.867 5.44C206.721 5.44 205.747 5.56 204.947 5.8C204.147 6.04 203.494 6.50667 202.987 7.2C202.507 7.86667 202.147 8.84 201.907 10.12C201.694 11.4 201.587 13.1067 201.587 15.24C201.587 17.2667 201.681 18.92 201.867 20.2C202.081 21.4533 202.427 22.4267 202.907 23.12C203.387 23.7867 204.027 24.2533 204.827 24.52C205.654 24.7867 206.667 24.92 207.867 24.92Z" fill="white"/>
</svg>
