<svg width="50" height="50" viewBox="0 0 50 50" fill="none" xmlns="http://www.w3.org/2000/svg">
<g clip-path="url(#clip0_84_2050)">
<circle cx="25" cy="25" r="24" stroke="#FFBC57" stroke-width="2"/>
<path d="M36.6771 35.061L32.4131 30.8283C34.0682 28.763 34.8698 26.1416 34.6529 23.5031C34.436 20.8646 33.2172 18.4095 31.2471 16.6426C29.277 14.8758 26.7054 13.9315 24.0609 14.0039C21.4165 14.0763 18.9003 15.1599 17.0296 17.0319C15.159 18.904 14.0762 21.4221 14.0039 24.0686C13.9315 26.715 14.8751 29.2886 16.6406 31.2602C18.4061 33.2318 20.8594 34.4515 23.4959 34.6686C26.1324 34.8856 28.7518 34.0835 30.8155 32.4271L35.045 36.6598C35.1519 36.7676 35.279 36.8531 35.419 36.9115C35.5591 36.9699 35.7093 37 35.861 37C36.0128 37 36.163 36.9699 36.303 36.9115C36.4431 36.8531 36.5702 36.7676 36.6771 36.6598C36.8842 36.4453 37 36.1587 37 35.8604C37 35.5621 36.8842 35.2755 36.6771 35.061ZM24.3679 32.4271C22.7767 32.4271 21.2212 31.9549 19.8982 31.0702C18.5752 30.1855 17.544 28.928 16.9351 27.4569C16.3261 25.9857 16.1668 24.3668 16.4772 22.805C16.7877 21.2432 17.5539 19.8086 18.679 18.6826C19.8042 17.5566 21.2377 16.7898 22.7983 16.4791C24.3589 16.1685 25.9766 16.3279 27.4466 16.9373C28.9167 17.5467 30.1732 18.5786 31.0572 19.9027C31.9412 21.2267 32.4131 22.7833 32.4131 24.3757C32.4131 26.5111 31.5655 28.559 30.0567 30.0689C28.5479 31.5788 26.5016 32.4271 24.3679 32.4271Z" fill="#535353"/>
</g>
<defs>
<clipPath id="clip0_84_2050">
<rect width="50" height="50" fill="white"/>
</clipPath>
</defs>
</svg>
