<svg width="50" height="24" viewBox="0 0 50 24" fill="none" xmlns="http://www.w3.org/2000/svg">
<path d="M6.84 18.228C5.04133 18.228 3.67333 17.7593 2.736 16.822C1.81133 15.8847 1.349 14.6117 1.349 13.003V5.327H3.591V12.927C3.591 13.953 3.86967 14.7637 4.427 15.359C4.997 15.9543 5.80133 16.252 6.84 16.252C7.87867 16.252 8.67667 15.9543 9.234 15.359C9.79133 14.7637 10.07 13.953 10.07 12.927V5.327H12.312V12.984C12.312 14.6053 11.8433 15.8847 10.906 16.822C9.98133 17.7593 8.626 18.228 6.84 18.228ZM25.8301 18H23.3031L22.3721 15.568H16.5581L15.6271 18H13.1001L18.0781 5.327H20.8521L25.8301 18ZM21.7451 13.611L19.4651 7.569L17.1851 13.611H21.7451Z" fill="#535353"/>
<path d="M38.7101 14.83L42.9501 10.59C43.0438 10.497 43.1182 10.3864 43.1689 10.2646C43.2197 10.1427 43.2458 10.012 43.2458 9.88C43.2458 9.74799 43.2197 9.61728 43.1689 9.49542C43.1182 9.37356 43.0438 9.26296 42.9501 9.17C42.7627 8.98375 42.5092 8.87921 42.2451 8.87921C41.9809 8.87921 41.7274 8.98375 41.5401 9.17L38.0001 12.71L34.4601 9.17C34.2727 8.98375 34.0192 8.87921 33.7551 8.87921C33.4909 8.87921 33.2374 8.98375 33.0501 9.17C32.9574 9.26344 32.884 9.37425 32.8343 9.49609C32.7845 9.61793 32.7593 9.74839 32.7601 9.88C32.7593 10.0116 32.7845 10.1421 32.8343 10.2639C32.884 10.3857 32.9574 10.4966 33.0501 10.59L37.2901 14.83C37.383 14.9237 37.4936 14.9981 37.6155 15.0489C37.7373 15.0997 37.868 15.1258 38.0001 15.1258C38.1321 15.1258 38.2628 15.0997 38.3846 15.0489C38.5065 14.9981 38.6171 14.9237 38.7101 14.83Z" fill="#535353"/>
</svg>
